<svg width="148" height="60" viewBox="0 0 148 60" fill="none" xmlns="http://www.w3.org/2000/svg">
<path d="M18.4983 9.81243C20.6714 3.91654 26.289 0 32.5727 0H127.609C137.725 0 144.941 9.80873 141.929 19.466L132.573 49.466C130.618 55.7322 124.817 60 118.253 60H21.5152C11.078 60 3.8312 49.6056 7.44079 39.8124L18.4983 9.81243Z" fill="#660FD6"/>
<path d="M18.2756 16.8182H25.1023L32.3125 34.4091H32.6193L39.8295 16.8182H46.6562V43H41.2869V25.9588H41.0696L34.294 42.8722H30.6378L23.8622 25.8949H23.6449V43H18.2756V16.8182ZM60.0636 43.3835C58.0437 43.3835 56.305 42.9744 54.8477 42.1562C53.3988 41.3295 52.2823 40.1619 51.4982 38.6534C50.7141 37.1364 50.3221 35.3423 50.3221 33.2713C50.3221 31.2514 50.7141 29.4787 51.4982 27.9531C52.2823 26.4276 53.386 25.2386 54.8093 24.3864C56.2411 23.5341 57.9201 23.108 59.8462 23.108C61.1417 23.108 62.3477 23.3168 63.4641 23.7344C64.5891 24.1435 65.5692 24.7614 66.4045 25.5881C67.2482 26.4148 67.9045 27.4545 68.3732 28.7074C68.842 29.9517 69.0764 31.4091 69.0764 33.0795V34.5753H52.4954V31.2003H63.9499C63.9499 30.4162 63.7795 29.7216 63.4386 29.1165C63.0977 28.5114 62.6246 28.0384 62.0195 27.6974C61.4229 27.348 60.7283 27.1733 59.9357 27.1733C59.109 27.1733 58.3761 27.3651 57.7369 27.7486C57.1062 28.1236 56.6119 28.6307 56.2539 29.2699C55.896 29.9006 55.7127 30.6037 55.7042 31.3793V34.5881C55.7042 35.5597 55.8832 36.3991 56.2411 37.1065C56.6076 37.8139 57.1232 38.3594 57.788 38.7429C58.4528 39.1264 59.2411 39.3182 60.1531 39.3182C60.7582 39.3182 61.3121 39.233 61.815 39.0625C62.3178 38.892 62.7482 38.6364 63.1062 38.2955C63.4641 37.9545 63.7369 37.5369 63.9244 37.0426L68.9613 37.375C68.7056 38.5852 68.1815 39.642 67.3889 40.5455C66.6048 41.4403 65.5906 42.1392 64.3462 42.642C63.1104 43.1364 61.6829 43.3835 60.0636 43.3835ZM75.8136 43.3324C74.9698 43.3324 74.2454 43.0341 73.6403 42.4375C73.0437 41.8324 72.7454 41.108 72.7454 40.2642C72.7454 39.429 73.0437 38.7131 73.6403 38.1165C74.2454 37.5199 74.9698 37.2216 75.8136 37.2216C76.6317 37.2216 77.3477 37.5199 77.9613 38.1165C78.5749 38.7131 78.8817 39.429 78.8817 40.2642C78.8817 40.8267 78.7369 41.3423 78.4471 41.8111C78.1658 42.2713 77.7951 42.642 77.3349 42.9233C76.8746 43.196 76.3675 43.3324 75.8136 43.3324Z" fill="white"/>
</svg>
